<svg width="44" height="55" viewBox="0 0 44 55" fill="none" xmlns="http://www.w3.org/2000/svg">
<path d="M10.4484 2.97212C5.89274 2.97212 2.19966 6.6652 2.19966 11.2208C2.19966 11.3842 2.20439 11.5463 2.21372 11.7071C2.2489 12.3135 1.78583 12.8336 1.17943 12.8687C0.573026 12.9039 0.0529266 12.4409 0.0177512 11.8345C0.00596701 11.6313 0 11.4267 0 11.2208C0 5.45036 4.6779 0.772461 10.4484 0.772461C10.6542 0.772461 10.8588 0.778428 11.062 0.790212C11.6684 0.825388 12.1315 1.34549 12.0963 1.95189C12.0611 2.55829 11.541 3.02136 10.9346 2.98618C10.7738 2.97686 10.6117 2.97212 10.4484 2.97212Z" fill="#BECFE3"/>
<path d="M12.0937 6.19754C12.1482 6.80251 11.702 7.33713 11.097 7.39164C8.72445 7.60544 6.83298 9.49691 6.61918 11.8695C6.56467 12.4744 6.03005 12.9207 5.42508 12.8661C4.82011 12.8116 4.37388 12.277 4.4284 11.672C4.73762 8.24062 7.46816 5.51008 10.8996 5.20086C11.5045 5.14634 12.0392 5.59257 12.0937 6.19754Z" fill="#BECFE3"/>
<path d="M18.6971 43.6658C18.6971 43.0584 19.1895 42.566 19.7969 42.566H23.0964C23.7039 42.566 24.1963 43.0584 24.1963 43.6658C24.1963 44.2733 23.7039 44.7657 23.0964 44.7657H19.7969C19.1895 44.7657 18.6971 44.2733 18.6971 43.6658Z" fill="#BECFE3"/>
<path fill-rule="evenodd" clip-rule="evenodd" d="M9.89847 13.9704C9.89847 12.1482 11.3757 10.6709 13.198 10.6709H29.6954C31.5177 10.6709 32.9949 12.1482 32.9949 13.9704V18.7299C33.4682 18.4998 34.0186 18.3697 34.6447 18.3697C35.5707 18.3697 36.3311 18.6542 36.9213 19.1263C37.4942 19.5846 37.8469 20.1711 38.0658 20.6963C38.285 21.2226 38.3894 21.7335 38.4406 22.1022C38.4666 22.2894 38.4799 22.4473 38.4868 22.5619C38.4902 22.6194 38.492 22.6665 38.493 22.7015L38.4938 22.8464L38.4941 22.9023V27.1684C38.4941 27.7822 38.7076 28.408 39.1266 29.1545C39.4385 29.7101 39.8165 30.2557 40.2482 30.8788L40.249 30.88C40.4179 31.1239 40.5951 31.3796 40.7797 31.6525C42.0535 33.5349 43.4433 35.9066 43.4433 39.2665C43.4433 42.1328 42.4339 44.5496 41.099 46.3664C39.7785 48.1635 38.0945 49.4336 36.6475 49.9721C36.4135 50.0592 36.1163 50.3371 35.9442 50.6998C35.3984 51.8493 34.2985 52.6962 33.0281 53.2478C31.7396 53.8072 30.1663 54.1142 28.4856 54.1142C26.3645 54.1142 25.3569 53.342 23.7746 52.2771C22.9797 51.742 22.2816 51.1094 21.7722 50.4203C21.4899 50.0386 21.2486 49.6158 21.0912 49.165H13.198C12.1801 49.165 11.27 48.7041 10.6647 47.9797C10.4655 48.0392 10.2597 48.0652 10.0556 48.0652C8.21926 48.0652 6.59898 46.6582 6.59898 44.7657C6.59898 44.2804 6.70554 43.827 6.89496 43.4211C5.43687 42.8732 4.39932 41.466 4.39932 39.8164C4.39932 38.7393 4.84171 37.7655 5.55471 37.0669C4.84171 36.3682 4.39932 35.3944 4.39932 34.3173C4.39932 32.9392 5.12347 31.7303 6.212 31.0502C5.76317 30.4207 5.49915 29.6502 5.49915 28.8181C5.49915 26.6922 7.22259 24.9687 9.34856 24.9687C9.53506 24.9687 9.71902 24.9822 9.89847 25.0116V13.9704ZM32.9949 45.8655V22.7734L32.9952 22.7626C32.9955 22.7492 32.9964 22.7254 32.9983 22.6926C33.0023 22.6268 33.0105 22.5269 33.0274 22.4048C33.0621 22.1549 33.1296 21.8409 33.254 21.5423C33.3789 21.2427 33.5417 21.0043 33.7421 20.8439C33.9253 20.6974 34.1959 20.5694 34.6447 20.5694C35.0934 20.5694 35.3641 20.6974 35.5472 20.8439C35.7476 21.0043 35.9105 21.2427 36.0353 21.5423C36.1597 21.8409 36.2272 22.1549 36.2619 22.4048C36.2789 22.5269 36.2871 22.6268 36.291 22.6926C36.2929 22.7254 36.2938 22.7492 36.2942 22.7626L36.2944 22.7737V27.1684C36.2944 28.3143 36.6995 29.3245 37.2085 30.2312C37.5752 30.8845 38.0418 31.5579 38.4954 32.2126C38.6526 32.4393 38.8087 32.6646 38.958 32.8852C40.1588 34.6598 41.2436 36.5774 41.2436 39.2665C41.2436 41.5989 40.4252 43.5685 39.3264 45.0639C38.2132 46.579 36.8573 47.547 35.8803 47.9106C34.9758 48.2472 34.3059 49.0216 33.9571 49.7564C33.7208 50.2541 33.1418 50.8004 32.1521 51.2301C31.1804 51.652 29.9122 51.9146 28.4856 51.9146C26.8673 51.9146 26.2802 51.312 25.0029 50.4523C24.3929 50.0417 23.9092 49.5943 23.5803 49.165H29.6954C31.5177 49.165 32.9949 47.6878 32.9949 45.8655ZM30.7952 13.9704V45.8655C30.7952 46.4729 30.3028 46.9653 29.6954 46.9653H13.198C12.5905 46.9653 12.0981 46.4729 12.0981 45.8655V45.0433C12.0982 45.0118 12.0983 44.9808 12.0983 44.9502C12.0983 44.9175 12.0982 44.8853 12.0982 44.8537L12.0981 44.7657L12.0982 44.6776C12.0983 44.6164 12.0983 44.5531 12.0981 44.4881V13.9704C12.0981 13.363 12.5905 12.8706 13.198 12.8706H29.6954C30.3028 12.8706 30.7952 13.363 30.7952 13.9704ZM9.89847 34.3173C9.89847 33.4062 9.15986 32.6675 8.24873 32.6675C7.3376 32.6675 6.59898 33.4062 6.59898 34.3173C6.59898 35.2284 7.3376 35.967 8.24873 35.967C9.15986 35.967 9.89847 35.2284 9.89847 34.3173ZM8.24873 38.1667C7.3376 38.1667 6.59898 38.9053 6.59898 39.8164C6.59898 40.7276 7.3376 41.4662 8.24873 41.4662C9.15986 41.4662 9.89847 40.7276 9.89847 39.8164C9.89847 38.9053 9.15986 38.1667 8.24873 38.1667ZM9.88546 43.9709C9.89814 44.1975 9.89847 44.4543 9.89847 44.7657C9.89847 45.077 9.89814 45.3339 9.88546 45.5604C9.87868 45.6816 9.86903 45.7774 9.858 45.8526C9.20553 45.7658 8.79864 45.2552 8.79864 44.7657C8.79864 44.2762 9.20553 43.7656 9.858 43.6787C9.86903 43.7539 9.87868 43.8498 9.88546 43.9709ZM9.73896 27.3231C9.85114 27.5738 9.89847 28.0261 9.89847 28.8181C9.89847 29.6102 9.85114 30.0625 9.73896 30.3132C9.70121 30.3976 9.67529 30.4123 9.6706 30.4149C9.6607 30.421 9.58095 30.4679 9.34856 30.4679C8.43743 30.4679 7.69881 29.7293 7.69881 28.8181C7.69881 27.907 8.43743 27.1684 9.34856 27.1684C9.58095 27.1684 9.66019 27.2149 9.67009 27.221C9.67478 27.2237 9.70121 27.2387 9.73896 27.3231Z" fill="#BECFE3"/>
<path d="M38.4938 22.8464C38.4938 22.8464 38.4939 22.7449 38.4931 22.7059L38.4935 22.7232L38.4939 22.7448L38.494 22.7594L38.4941 22.7649L38.4938 22.8464Z" fill="#BECFE3"/>
<path d="M19.5428 35.9679V22.2931C19.5428 21.949 19.8217 21.6701 20.1657 21.6701H22.3105C24.5666 21.6701 26.3955 23.4991 26.3955 25.7552V25.7552C26.3955 28.0113 24.5666 29.8403 22.3105 29.8403H16.4971M16.4971 33.2445H24.8727" stroke="#BECFE3" stroke-width="1.5" stroke-linecap="round"/>
</svg>
