<svg width="45" height="44" viewBox="0 0 45 44" fill="none" xmlns="http://www.w3.org/2000/svg">
<path d="M18.1806 6.62285C18.6166 6.75259 18.8648 7.21118 18.735 7.64713C18.6022 8.09361 18.5305 8.56739 18.5305 9.05937C18.5305 9.55134 18.6022 10.0251 18.735 10.4716C18.8648 10.9075 18.6166 11.3661 18.1806 11.4959C17.7446 11.6256 17.2861 11.3774 17.1563 10.9414C16.9785 10.3441 16.8834 9.71212 16.8834 9.05937C16.8834 8.40661 16.9785 7.77463 17.1563 7.17728C17.2861 6.74133 17.7446 6.4931 18.1806 6.62285Z" fill="#BECFE3"/>
<path d="M28.7634 6.62285C29.1993 6.4931 29.6579 6.74133 29.7877 7.17728C29.9654 7.77463 30.0606 8.40661 30.0606 9.05937C30.0606 9.71212 29.9654 10.3441 29.7877 10.9414C29.6579 11.3774 29.1993 11.6256 28.7634 11.4959C28.3274 11.3661 28.0792 10.9075 28.2089 10.4716C28.3418 10.0251 28.4135 9.55134 28.4135 9.05937C28.4135 8.56739 28.3418 8.09361 28.2089 7.64713C28.0792 7.21118 28.3274 6.75259 28.7634 6.62285Z" fill="#BECFE3"/>
<path fill-rule="evenodd" clip-rule="evenodd" d="M14.4126 9.05936C14.4126 4.05601 18.4686 0 23.472 0C28.4753 0 32.5313 4.05601 32.5313 9.05936C32.5313 14.0627 28.4753 18.1187 23.472 18.1187C18.4686 18.1187 14.4126 14.0627 14.4126 9.05936ZM23.472 1.64716C19.3783 1.64716 16.0598 4.96571 16.0598 9.05936C16.0598 13.153 19.3783 16.4716 23.472 16.4716C27.5656 16.4716 30.8842 13.153 30.8842 9.05936C30.8842 4.96571 27.5656 1.64716 23.472 1.64716Z" fill="#BECFE3"/>
<path fill-rule="evenodd" clip-rule="evenodd" d="M4.94147 8.64757C4.94147 8.62266 4.94036 8.598 4.9382 8.57365L6.82985 10.4653C7.15148 10.7869 7.67294 10.7869 7.99456 10.4653C8.31619 10.1437 8.31619 9.62221 7.99456 9.30058L4.70025 6.00627C4.37862 5.68464 3.85716 5.68464 3.53553 6.00627L0.241221 9.30058C-0.0804069 9.62221 -0.0804069 10.1437 0.241221 10.4653C0.562848 10.7869 1.08431 10.7869 1.40594 10.4653L3.29759 8.57365C3.29542 8.598 3.29431 8.62266 3.29431 8.64757V36.4769C2.08702 36.9656 1.23537 38.1492 1.23537 39.5318C1.23537 41.3512 2.71028 42.8261 4.52968 42.8261C6.0647 42.8261 7.35451 41.7762 7.72021 40.3553H14.4126V42.0025C14.4126 42.4573 14.7814 42.8261 15.2362 42.8261C15.6911 42.8261 16.0598 42.4573 16.0598 42.0025V40.3553H24.2956V42.0025C24.2956 42.4573 24.6643 42.8261 25.1191 42.8261C25.574 42.8261 25.9427 42.4573 25.9427 42.0025V40.3553H34.1785V42.0025C34.1785 42.4573 34.5472 42.8261 35.0021 42.8261C35.4569 42.8261 35.8257 42.4573 35.8257 42.0025V40.3553H42.0025C42.0274 40.3553 42.0521 40.3542 42.0764 40.3521L40.1848 42.2437C39.8632 42.5653 39.8632 43.0868 40.1848 43.4084C40.5064 43.7301 41.0279 43.7301 41.3495 43.4084L44.6438 40.1141C44.9654 39.7925 44.9654 39.271 44.6438 38.9494L41.3495 35.6551C41.0279 35.3335 40.5064 35.3335 40.1848 35.6551C39.8632 35.9767 39.8632 36.4982 40.1848 36.8198L42.0764 38.7115C42.0521 38.7093 42.0274 38.7082 42.0025 38.7082H35.8257V37.061C35.8257 36.6062 35.4569 36.2374 35.0021 36.2374C34.5472 36.2374 34.1785 36.6062 34.1785 37.061V38.7082H25.9427V37.061C25.9427 36.6062 25.574 36.2374 25.1191 36.2374C24.6643 36.2374 24.2956 36.6062 24.2956 37.061V38.7082H16.0598V37.061C16.0598 36.6062 15.6911 36.2374 15.2362 36.2374C14.7814 36.2374 14.4126 36.6062 14.4126 37.061V38.7082H7.72021C7.38773 37.4164 6.29143 36.4313 4.94147 36.2629V8.64757ZM42.8228 39.4578C42.825 39.4822 42.8261 39.5069 42.8261 39.5318C42.8261 39.5567 42.825 39.5813 42.8228 39.6057L42.8967 39.5318L42.8228 39.4578ZM4.11789 7.75334L4.19182 7.82727C4.16747 7.8251 4.14281 7.82399 4.11789 7.82399C4.09298 7.82399 4.06832 7.8251 4.04397 7.82727L4.11789 7.75334ZM4.52968 37.8846C5.43938 37.8846 6.17684 38.6221 6.17684 39.5318C6.17684 40.4415 5.43938 41.1789 4.52968 41.1789C3.61998 41.1789 2.88252 40.4415 2.88252 39.5318C2.88252 38.6221 3.61998 37.8846 4.52968 37.8846Z" fill="#BECFE3"/>
<path fill-rule="evenodd" clip-rule="evenodd" d="M41.5907 12.3537C39.7713 12.3537 38.2964 13.8286 38.2964 15.648C38.2964 15.9519 38.3375 16.2461 38.4146 16.5255C38.3636 16.545 38.3139 16.5699 38.266 16.6003L33.7364 19.4829C33.6063 19.5656 33.502 19.6832 33.4355 19.8223L29.4081 28.2434L25.7015 24.5368C25.5393 24.3746 25.3168 24.2874 25.0875 24.2962C24.8583 24.305 24.6431 24.409 24.4938 24.5832L20.0849 29.7269L15.3564 25.7258C15.1873 25.5827 14.9677 25.5138 14.7471 25.5346C14.5266 25.5554 14.3237 25.6641 14.1843 25.8363L7.18388 34.4839C6.89768 34.8374 6.95227 35.356 7.3058 35.6422C7.65933 35.9284 8.17793 35.8738 8.46412 35.5203L14.935 27.5269L19.6457 31.5129C19.9914 31.8054 20.5083 31.764 20.803 31.4202L25.1657 26.3304L29.0665 30.2312C29.2555 30.4202 29.5244 30.5057 29.7879 30.4606C30.0513 30.4155 30.2765 30.2453 30.3918 30.0042L34.8197 20.7458L39.1504 17.99C39.1757 17.9739 39.1998 17.9566 39.2228 17.9383C39.8217 18.5574 40.6613 18.9423 41.5907 18.9423C43.4101 18.9423 44.885 17.4674 44.885 15.648C44.885 13.8286 43.4101 12.3537 41.5907 12.3537ZM39.9436 15.648C39.9436 14.7383 40.681 14.0008 41.5907 14.0008C42.5004 14.0008 43.2379 14.7383 43.2379 15.648C43.2379 16.5577 42.5004 17.2951 41.5907 17.2951C40.681 17.2951 39.9436 16.5577 39.9436 15.648Z" fill="#BECFE3"/>
<path d="M22.3931 13.8042V4.7377C22.3931 4.53266 22.5593 4.36646 22.7643 4.36646H23.7802C25.2695 4.36646 26.4767 5.57372 26.4767 7.06296V7.06296C26.4767 8.5522 25.2695 9.75946 23.7802 9.75946H20.5781M20.5781 12.0065H25.5692" stroke="#BECFE3" stroke-width="1.2" stroke-linecap="round"/>
</svg>
