<svg width="24" height="24" viewBox="0 0 24 24" fill="none" xmlns="http://www.w3.org/2000/svg">
<path d="M12 7C9.23858 7 7 9.23858 7 12C7 14.7614 9.23858 17 12 17C14.7614 17 17 14.7614 17 12C17 11.3576 16.8791 10.7447 16.6593 10.1819C16.5589 9.92466 16.686 9.63471 16.9432 9.53426C17.2004 9.4338 17.4904 9.56089 17.5908 9.81811C17.8552 10.495 18 11.2312 18 12C18 15.3137 15.3137 18 12 18C8.68629 18 6 15.3137 6 12C6 8.68629 8.68629 6 12 6C12.8925 6 13.7408 6.19519 14.5033 6.54569C14.7542 6.66102 14.8641 6.95792 14.7488 7.20882C14.6335 7.45973 14.3366 7.56963 14.0857 7.45431C13.4515 7.1628 12.7454 7 12 7Z" fill="#292A2A"/>
<path d="M16.8963 7.80485C17.0647 7.58597 17.0237 7.27205 16.8049 7.10368C16.586 6.93532 16.2721 6.97626 16.1037 7.19514L11.4509 13.2438L9.60355 11.3964C9.40829 11.2012 9.09171 11.2012 8.89645 11.3964C8.70118 11.5917 8.70118 11.9083 8.89645 12.1035L11.1464 14.3535C11.2482 14.4553 11.3888 14.5083 11.5324 14.4989C11.676 14.4896 11.8086 14.4189 11.8963 14.3048L16.8963 7.80485Z" fill="#292A2A"/>
<path fill-rule="evenodd" clip-rule="evenodd" d="M10.3256 2.1362C10.4925 1.46845 11.0925 1 11.7808 1H12.2192C12.9075 1 13.5075 1.46845 13.6744 2.1362L14.0021 3.44696C14.0467 3.62544 14.1976 3.78378 14.4158 3.84835C14.9902 4.01831 15.5391 4.24727 16.0555 4.52813C16.2552 4.63672 16.4737 4.63148 16.6315 4.53681L17.7907 3.84126C18.3809 3.48713 19.1364 3.58014 19.6231 4.06684L19.9332 4.37687C20.4199 4.86357 20.5129 5.61906 20.1587 6.20927L19.4632 7.36853C19.3685 7.52631 19.3633 7.74483 19.4719 7.9445C19.7527 8.46094 19.9817 9.00984 20.1517 9.58418C20.2162 9.80238 20.3746 9.95325 20.553 9.99787L21.8638 10.3256C22.5316 10.4925 23 11.0925 23 11.7808V12.2192C23 12.9075 22.5316 13.5075 21.8638 13.6744L20.553 14.0021C20.3746 14.0467 20.2162 14.1976 20.1517 14.4158C19.9817 14.9901 19.7527 15.539 19.4719 16.0555C19.3633 16.2551 19.3685 16.4737 19.4632 16.6314L20.1588 17.7908C20.5129 18.381 20.4199 19.1365 19.9332 19.6232L19.6232 19.9332C19.1365 20.4199 18.381 20.5129 17.7908 20.1588L16.6315 19.4632C16.4737 19.3685 16.2551 19.3633 16.0555 19.4719C15.5391 19.7527 14.9901 19.9817 14.4158 20.1517C14.1976 20.2162 14.0467 20.3746 14.0021 20.553L13.6744 21.8638C13.5075 22.5316 12.9075 23 12.2192 23H11.7808C11.0925 23 10.4925 22.5316 10.3256 21.8638L9.99787 20.553C9.95325 20.3746 9.80238 20.2162 9.58418 20.1517C9.00985 19.9817 8.46095 19.7527 7.94452 19.4719C7.74485 19.3633 7.52633 19.3685 7.36855 19.4632L6.20921 20.1588C5.619 20.5129 4.86351 20.4199 4.37681 19.9332L4.06678 19.6232C3.58008 19.1365 3.48707 18.381 3.8412 17.7908L4.5368 16.6314C4.63147 16.4737 4.63671 16.2551 4.52812 16.0555C4.24726 15.539 4.01831 14.9901 3.84835 14.4158C3.78378 14.1976 3.62544 14.0467 3.44696 14.0021L2.1362 13.6744C1.46845 13.5075 1 12.9075 1 12.2192V11.7808C1 11.0925 1.46845 10.4925 2.1362 10.3256L3.44696 9.99787C3.62544 9.95325 3.78378 9.80238 3.84835 9.58418C4.01831 9.00984 4.24727 8.46093 4.52813 7.9445C4.63672 7.74483 4.63148 7.52631 4.53681 7.36853L3.84126 6.20927C3.48713 5.61906 3.58014 4.86357 4.06684 4.37687L4.37687 4.06684C4.86357 3.58014 5.61906 3.48713 6.20927 3.84126L7.36853 4.53681C7.52631 4.63148 7.74484 4.63672 7.9445 4.52813C8.46094 4.24727 9.00984 4.01831 9.58418 3.84835C9.80238 3.78378 9.95325 3.62544 9.99787 3.44696L10.3256 2.1362ZM11.7808 2C11.5513 2 11.3514 2.15615 11.2957 2.37873L10.968 3.68949C10.8272 4.25265 10.3828 4.65489 9.86794 4.80724C9.36174 4.95704 8.87779 5.15888 8.42227 5.40662C7.95043 5.66323 7.35171 5.69291 6.85403 5.39431L5.69478 4.69875C5.49804 4.58071 5.24621 4.61171 5.08398 4.77395L4.77395 5.08397C4.61172 5.24621 4.58071 5.49804 4.69876 5.69478L5.39431 6.85403C5.69291 7.35171 5.66323 7.95042 5.40662 8.42226C5.15888 8.87779 4.95704 9.36174 4.80724 9.86794C4.65489 10.3828 4.25265 10.8272 3.68949 10.968L2.37873 11.2957C2.15615 11.3514 2 11.5513 2 11.7808V12.2192C2 12.4487 2.15615 12.6486 2.37873 12.7043L3.68949 13.032C4.25265 13.1728 4.65489 13.6172 4.80724 14.1321C4.95704 14.6383 5.15887 15.1222 5.40661 15.5777C5.66321 16.0496 5.6929 16.6483 5.39429 17.1459L4.69869 18.3053C4.58065 18.502 4.61165 18.7538 4.77389 18.9161L5.08391 19.2261C5.24615 19.3883 5.49798 19.4193 5.69472 19.3013L6.85405 18.6057C7.35173 18.3071 7.95044 18.3368 8.42228 18.5934C8.8778 18.8411 9.36175 19.043 9.86794 19.1928C10.3828 19.3451 10.8272 19.7473 10.968 20.3105L11.2957 21.6213C11.3514 21.8439 11.5513 22 11.7808 22H12.2192C12.4487 22 12.6486 21.8439 12.7043 21.6213L13.032 20.3105C13.1728 19.7473 13.6172 19.3451 14.1321 19.1928C14.6383 19.043 15.1222 18.8411 15.5777 18.5934C16.0496 18.3368 16.6483 18.3071 17.146 18.6057L18.3053 19.3013C18.502 19.4193 18.7539 19.3883 18.9161 19.2261L19.2261 18.9161C19.3883 18.7538 19.4193 18.502 19.3013 18.3053L18.6057 17.1459C18.3071 16.6483 18.3368 16.0496 18.5934 15.5777C18.8411 15.1222 19.043 14.6383 19.1928 14.1321C19.3451 13.6172 19.7473 13.1728 20.3105 13.032L21.6213 12.7043C21.8439 12.6486 22 12.4487 22 12.2192V11.7808C22 11.5513 21.8439 11.3514 21.6213 11.2957L20.3105 10.968C19.7473 10.8272 19.3451 10.3828 19.1928 9.86794C19.043 9.36174 18.8411 8.87779 18.5934 8.42226C18.3368 7.95043 18.3071 7.35171 18.6057 6.85403L19.3012 5.69478C19.4193 5.49804 19.3883 5.24621 19.226 5.08397L18.916 4.77395C18.7538 4.61171 18.502 4.58071 18.3052 4.69875L17.146 5.39431C16.6483 5.69291 16.0496 5.66323 15.5777 5.40662C15.1222 5.15888 14.6383 4.95704 14.1321 4.80724C13.6172 4.65489 13.1728 4.25265 13.032 3.68949L12.7043 2.37873C12.6486 2.15615 12.4487 2 12.2192 2H11.7808Z" fill="#292A2A"/>
<path d="M5.69472 19.3013C5.49798 19.4193 5.24615 19.3883 5.08391 19.2261L4.77389 18.9161C4.61165 18.7538 4.58065 18.502 4.69869 18.3053L5.39429 17.1459C5.6929 16.6483 5.66321 16.0496 5.40661 15.5777C5.15887 15.1222 4.95704 14.6383 4.80724 14.1321C4.65489 13.6172 4.25265 13.1728 3.68949 13.032L2.37873 12.7043C2.15615 12.6486 2 12.4487 2 12.2192V11.7808C2 11.5513 2.15615 11.3514 2.37873 11.2957L3.68949 10.968C4.25265 10.8272 4.65489 10.3828 4.80724 9.86794C4.95704 9.36174 5.15888 8.87779 5.40662 8.42226C5.66323 7.95042 5.69291 7.35171 5.39431 6.85403L4.69876 5.69478C4.58071 5.49804 4.61172 5.24621 4.77395 5.08397L5.08398 4.77395C5.24621 4.61171 5.49804 4.58071 5.69478 4.69875L6.85403 5.39431C7.35171 5.69291 7.95043 5.66323 8.42227 5.40662C8.87779 5.15888 9.36174 4.95704 9.86794 4.80724C10.3828 4.65489 10.8272 4.25265 10.968 3.68949L11.2957 2.37873C11.3514 2.15615 11.5513 2 11.7808 2H12.2192C12.4487 2 12.6486 2.15615 12.7043 2.37873L13.032 3.68949C13.1728 4.25265 13.6172 4.65489 14.1321 4.80724C14.6383 4.95704 15.1222 5.15888 15.5777 5.40662C16.0496 5.66323 16.6483 5.69291 17.146 5.39431L18.3052 4.69875C18.502 4.58071 18.7538 4.61171 18.916 4.77395L19.226 5.08397C19.3883 5.24621 19.4193 5.49804 19.3012 5.69478L18.6057 6.85403C18.3071 7.35171 18.3368 7.95043 18.5934 8.42226C18.8411 8.87779 19.043 9.36174 19.1928 9.86794C19.3451 10.3828 19.7473 10.8272 20.3105 10.968L21.6213 11.2957C21.8439 11.3514 22 11.5513 22 11.7808V12.2192C22 12.4487 21.8439 12.6486 21.6213 12.7043L20.3105 13.032C19.7473 13.1728 19.3451 13.6172 19.1928 14.1321C19.043 14.6383 18.8411 15.1222 18.5934 15.5777C18.3368 16.0496 18.3071 16.6483 18.6057 17.1459L19.3013 18.3053C19.4193 18.502 19.3883 18.7538 19.2261 18.9161L18.9161 19.2261C18.7539 19.3883 18.502 19.4193 18.3053 19.3013L17.146 18.6057C16.6483 18.3071 16.0496 18.3368 15.5777 18.5934C15.1222 18.8411 14.6383 19.043 14.1321 19.1928C13.6172 19.3451 13.1728 19.7473 13.032 20.3105L12.7043 21.6213C12.6486 21.8439 12.4487 22 12.2192 22H11.7808C11.5513 22 11.3514 21.8439 11.2957 21.6213L10.968 20.3105C10.8272 19.7473 10.3828 19.3451 9.86794 19.1928C9.36175 19.043 8.8778 18.8411 8.42228 18.5934C7.95044 18.3368 7.35173 18.3071 6.85405 18.6057L5.69472 19.3013ZM5.69472 19.3013L5.95196 19.7301M11.7808 1C11.0925 1 10.4925 1.46845 10.3256 2.1362L9.99787 3.44696C9.95325 3.62544 9.80238 3.78378 9.58418 3.84835C9.00984 4.01831 8.46094 4.24727 7.9445 4.52813C7.74484 4.63672 7.52631 4.63148 7.36853 4.53681L6.20927 3.84126C5.61906 3.48713 4.86357 3.58014 4.37687 4.06684L4.06684 4.37687C3.58014 4.86357 3.48713 5.61906 3.84126 6.20927L4.53681 7.36853C4.63148 7.52631 4.63672 7.74483 4.52813 7.9445C4.24727 8.46093 4.01831 9.00984 3.84835 9.58418C3.78378 9.80238 3.62544 9.95325 3.44696 9.99787L2.1362 10.3256C1.46845 10.4925 1 11.0925 1 11.7808V12.2192C1 12.9075 1.46845 13.5075 2.1362 13.6744L3.44696 14.0021C3.62544 14.0467 3.78378 14.1976 3.84835 14.4158C4.01831 14.9901 4.24726 15.539 4.52812 16.0555C4.63671 16.2551 4.63147 16.4737 4.5368 16.6314L3.8412 17.7908C3.48707 18.381 3.58008 19.1365 4.06678 19.6232L4.37681 19.9332C4.86351 20.4199 5.619 20.5129 6.20921 20.1588L7.36855 19.4632C7.52633 19.3685 7.74485 19.3633 7.94452 19.4719C8.46095 19.7527 9.00985 19.9817 9.58418 20.1517C9.80238 20.2162 9.95325 20.3746 9.99787 20.553L10.3256 21.8638C10.4925 22.5316 11.0925 23 11.7808 23H12.2192C12.9075 23 13.5075 22.5316 13.6744 21.8638L14.0021 20.553C14.0467 20.3746 14.1976 20.2162 14.4158 20.1517C14.9901 19.9817 15.5391 19.7527 16.0555 19.4719C16.2551 19.3633 16.4737 19.3685 16.6315 19.4632L17.7908 20.1588C18.381 20.5129 19.1365 20.4199 19.6232 19.9332L19.9332 19.6232C20.4199 19.1365 20.5129 18.381 20.1588 17.7908L19.4632 16.6314C19.3685 16.4737 19.3633 16.2551 19.4719 16.0555C19.7527 15.539 19.9817 14.9901 20.1517 14.4158C20.2162 14.1976 20.3746 14.0467 20.553 14.0021L21.8638 13.6744C22.5316 13.5075 23 12.9075 23 12.2192V11.7808C23 11.0925 22.5316 10.4925 21.8638 10.3256L20.553 9.99787C20.3746 9.95325 20.2162 9.80238 20.1517 9.58418C19.9817 9.00984 19.7527 8.46094 19.4719 7.9445C19.3633 7.74483 19.3685 7.52631 19.4632 7.36853L20.1587 6.20927C20.5129 5.61906 20.4199 4.86357 19.9332 4.37687L19.6231 4.06684C19.1364 3.58014 18.3809 3.48713 17.7907 3.84126L16.6315 4.53681C16.4737 4.63148 16.2552 4.63672 16.0555 4.52813C15.5391 4.24727 14.9902 4.01831 14.4158 3.84835C14.1976 3.78378 14.0467 3.62544 14.0021 3.44696L13.6744 2.1362C13.5075 1.46845 12.9075 1 12.2192 1H11.7808ZM7 12C7 9.23858 9.23858 7 12 7C12.7454 7 13.4515 7.1628 14.0857 7.45431C14.3366 7.56963 14.6335 7.45973 14.7488 7.20882C14.8641 6.95792 14.7542 6.66102 14.5033 6.54569C13.7408 6.19519 12.8925 6 12 6C8.68629 6 6 8.68629 6 12C6 15.3137 8.68629 18 12 18C15.3137 18 18 15.3137 18 12C18 11.2312 17.8552 10.495 17.5908 9.81811C17.4904 9.56089 17.2004 9.4338 16.9432 9.53426C16.686 9.63471 16.5589 9.92466 16.6593 10.1819C16.8791 10.7447 17 11.3576 17 12C17 14.7614 14.7614 17 12 17C9.23858 17 7 14.7614 7 12ZM16.8049 7.10368C17.0237 7.27205 17.0647 7.58597 16.8963 7.80485L11.8963 14.3048C11.8086 14.4189 11.676 14.4896 11.5324 14.4989C11.3888 14.5083 11.2482 14.4553 11.1464 14.3535L8.89645 12.1035C8.70118 11.9083 8.70118 11.5917 8.89645 11.3964C9.09171 11.2012 9.40829 11.2012 9.60355 11.3964L11.4509 13.2438L16.1037 7.19514C16.2721 6.97626 16.586 6.93532 16.8049 7.10368Z" stroke="#292A2A" stroke-width="0.2" stroke-linecap="round"/>
</svg>
