<svg width="46" height="41" viewBox="0 0 46 41" fill="none" xmlns="http://www.w3.org/2000/svg">
<path fill-rule="evenodd" clip-rule="evenodd" d="M21.2786 5.70886C21.2786 2.55594 23.8345 0 26.9874 0C30.1403 0 32.6963 2.55594 32.6963 5.70886C32.6963 8.86178 30.1403 11.4177 26.9874 11.4177C23.8345 11.4177 21.2786 8.86178 21.2786 5.70886ZM26.9874 2.07595C24.981 2.07595 23.3545 3.70246 23.3545 5.70886C23.3545 7.71526 24.981 9.34177 26.9874 9.34177C28.9938 9.34177 30.6203 7.71526 30.6203 5.70886C30.6203 3.70246 28.9938 2.07595 26.9874 2.07595Z" fill="#BECFE3"/>
<path d="M18.61 9.59095C19.1278 9.34497 19.3482 8.7258 19.1022 8.208C18.8562 7.6902 18.237 7.46984 17.7192 7.71582C16.1436 8.46433 15.0507 10.0718 15.0507 11.9367C15.0507 14.5164 17.1419 16.6076 19.7216 16.6076C21.5864 16.6076 23.194 15.5147 23.9425 13.939C24.1884 13.4212 23.9681 12.8021 23.4503 12.5561C22.9325 12.3101 22.3133 12.5305 22.0673 13.0483C21.6497 13.9274 20.7552 14.5316 19.7216 14.5316C18.2884 14.5316 17.1267 13.3698 17.1267 11.9367C17.1267 10.9031 17.7309 10.0086 18.61 9.59095Z" fill="#BECFE3"/>
<path fill-rule="evenodd" clip-rule="evenodd" d="M7.85131 19.1427C5.90952 18.3731 4.32079 18.5246 3.12244 19.2482C1.9125 19.9787 1.29001 21.1809 1.06904 22.0647C0.960679 22.4982 1.14183 22.9523 1.51876 23.1922L3.26395 24.3027C3.10274 24.3508 2.94578 24.4057 2.79338 24.4666C1.38102 25.0316 0.305102 26.1584 0.0310644 27.2546C-0.0780482 27.691 0.106422 28.1481 0.487922 28.3865L12.8214 36.095C14.4079 37.8145 18.611 41 23.8735 41C30.5486 41 34.6707 39.017 36.9034 36.9162C37.178 38.3553 38.443 39.443 39.9621 39.443H42.038C43.7578 39.443 45.152 38.0489 45.152 36.3291V22.8354C45.152 21.1157 43.7578 19.7215 42.038 19.7215H39.9621C38.7366 19.7215 37.6765 20.4294 37.1683 21.4586C36.8196 21.1323 36.4228 20.8125 35.974 20.5299C34.5796 19.6519 32.7335 19.1612 30.3686 19.7525C29.8124 19.8916 29.4743 20.4551 29.6133 21.0113C29.7524 21.5674 30.3159 21.9055 30.8721 21.7665C32.659 21.3197 33.9268 21.694 34.8679 22.2866C35.7289 22.8287 36.3545 23.5756 36.8482 24.2215V33.5495C36.1969 35.1521 32.87 38.924 23.8735 38.924C19.8062 38.924 16.3924 36.6428 14.7897 35.1327C15.1365 34.67 15.6821 34.1711 16.4446 33.8453C17.5139 33.3885 19.1228 33.2252 21.3983 34.1733C21.5248 34.226 21.6605 34.2532 21.7975 34.2532H23.8735C24.4133 34.2532 24.863 33.8394 24.9079 33.3014C24.9746 32.5004 25.4166 31.1842 26.5769 30.0721C27.7128 28.9834 29.6064 28.0253 32.6963 28.0253C33.2695 28.0253 33.7342 27.5605 33.7342 26.9873C33.7342 26.414 33.2695 25.9493 32.6963 25.9493C29.1431 25.9493 26.7119 27.0672 25.1404 28.5734C23.9488 29.7155 23.2907 31.0443 23.0025 32.1772H22.0009C19.3838 31.1343 17.2526 31.2427 15.629 31.9363C14.5255 32.4077 13.7056 33.1291 13.1538 33.8546L2.43122 27.153C2.68207 26.8846 3.05608 26.5974 3.56436 26.3941C4.44565 26.0416 5.70753 25.9649 7.24944 26.839L12.9365 30.458C13.4201 30.7657 14.0617 30.6232 14.3694 30.1395C14.6772 29.6559 14.5346 29.0143 14.051 28.7066L3.35792 21.9019C3.54927 21.5713 3.82695 21.2478 4.19543 21.0253C4.75381 20.6882 5.71411 20.4671 7.32209 21.1708C7.33258 21.1772 7.34853 21.1869 7.37099 21.2009C7.43425 21.2403 7.52378 21.2975 7.6383 21.3717C7.8664 21.5194 8.1794 21.7253 8.55021 21.9711C9.29109 22.462 10.2531 23.1053 11.2077 23.7457C12.1619 24.3859 13.1072 25.0221 13.8141 25.4984C14.1675 25.7365 14.4612 25.9346 14.6666 26.0731L14.9885 26.2904C15.4636 26.6112 16.1091 26.4863 16.4299 26.0112C16.7507 25.5362 16.6256 24.8909 16.1505 24.5701L15.8276 24.3522C15.6219 24.2135 15.3279 24.0151 14.9741 23.7768C14.2666 23.3001 13.32 22.663 12.3643 22.0218C11.4088 21.3808 10.4428 20.7348 9.69687 20.2405L9.65215 20.2109C9.66875 20.1904 9.68567 20.1697 9.70294 20.1489C9.94503 19.857 10.2235 19.5731 10.5519 19.362C10.8702 19.1574 11.2343 19.0213 11.6737 19.0159C12.1073 19.0107 12.6878 19.1319 13.4436 19.5541L15.4659 21.0709C15.9245 21.4148 16.5751 21.3219 16.9191 20.8633C17.263 20.4047 17.1701 19.7541 16.7115 19.4101L14.6355 17.8532C14.6011 17.8273 14.5651 17.8037 14.5277 17.7823C13.4936 17.1914 12.5345 16.9293 11.6484 16.9401C10.7579 16.951 10.0191 17.2366 9.42929 17.6158C8.84944 17.9885 8.41429 18.4507 8.10496 18.8238C8.01093 18.9371 7.92547 19.0462 7.85131 19.1427ZM15.5697 25.4304C16.1506 24.5702 16.1505 24.5701 16.1505 24.5701L15.5697 25.4304ZM38.9241 23.8838V33.7099L38.9244 33.7271C38.9245 33.7374 38.9244 33.7478 38.9241 33.7581V36.3291C38.9241 36.9024 39.3888 37.3671 39.9621 37.3671H42.038C42.6113 37.3671 43.076 36.9024 43.076 36.3291V22.8354C43.076 22.2622 42.6113 21.7975 42.038 21.7975H39.9621C39.3888 21.7975 38.9241 22.2622 38.9241 22.8354V23.8615C38.9242 23.869 38.9242 23.8764 38.9241 23.8838Z" fill="#BECFE3"/>
<path fill-rule="evenodd" clip-rule="evenodd" d="M18.1646 22.3165C18.1646 19.7368 20.2559 17.6456 22.8355 17.6456C25.4152 17.6456 27.5064 19.7368 27.5064 22.3165C27.5064 24.8961 25.4152 26.9873 22.8355 26.9873C20.2559 26.9873 18.1646 24.8961 18.1646 22.3165ZM22.8355 19.7215C21.4024 19.7215 20.2406 20.8833 20.2406 22.3165C20.2406 23.7496 21.4024 24.9114 22.8355 24.9114C24.2687 24.9114 25.4305 23.7496 25.4305 22.3165C25.4305 20.8833 24.2687 19.7215 22.8355 19.7215Z" fill="#BECFE3"/>
</svg>
