<svg width="44" height="44" viewBox="0 0 44 44" fill="none" xmlns="http://www.w3.org/2000/svg">
<path fill-rule="evenodd" clip-rule="evenodd" d="M15.84 12.32C15.84 10.376 14.264 8.8 12.32 8.8C10.376 8.8 8.8 10.376 8.8 12.32C8.8 14.264 10.376 15.84 12.32 15.84C14.264 15.84 15.84 14.264 15.84 12.32ZM12.32 10.56C13.292 10.56 14.08 11.348 14.08 12.32C14.08 13.292 13.292 14.08 12.32 14.08C11.348 14.08 10.56 13.292 10.56 12.32C10.56 11.348 11.348 10.56 12.32 10.56Z" fill="#BECFE3"/>
<path fill-rule="evenodd" clip-rule="evenodd" d="M21.12 17.6C23.064 17.6 24.64 19.176 24.64 21.12C24.64 23.064 23.064 24.64 21.12 24.64C19.176 24.64 17.6 23.064 17.6 21.12C17.6 19.176 19.176 17.6 21.12 17.6ZM22.88 21.12C22.88 20.148 22.092 19.36 21.12 19.36C20.148 19.36 19.36 20.148 19.36 21.12C19.36 22.092 20.148 22.88 21.12 22.88C22.092 22.88 22.88 22.092 22.88 21.12Z" fill="#BECFE3"/>
<path d="M9.93775 23.5023C9.59408 23.1586 9.59408 22.6014 9.93775 22.2577L21.3777 10.8177C21.7214 10.4741 22.2786 10.4741 22.6223 10.8177C22.9659 11.1614 22.9659 11.7186 22.6223 12.0623L11.1823 23.5023C10.8386 23.8459 10.2814 23.8459 9.93775 23.5023Z" fill="#BECFE3"/>
<path fill-rule="evenodd" clip-rule="evenodd" d="M16.72 2.64C8.94383 2.64 2.64 8.94383 2.64 16.72C2.64 24.4962 8.94383 30.8 16.72 30.8C24.4962 30.8 30.8 24.4962 30.8 16.72C30.8 8.94383 24.4962 2.64 16.72 2.64ZM4.4 16.72C4.4 9.91585 9.91585 4.4 16.72 4.4C23.5241 4.4 29.04 9.91585 29.04 16.72C29.04 23.5241 23.5241 29.04 16.72 29.04C9.91585 29.04 4.4 23.5241 4.4 16.72Z" fill="#BECFE3"/>
<path fill-rule="evenodd" clip-rule="evenodd" d="M0 16.72C0 7.4858 7.4858 0 16.72 0C25.9542 0 33.44 7.4858 33.44 16.72C33.44 21.0205 31.8164 24.9418 29.1488 27.9043L29.92 28.6755L31.0577 27.5377C31.4014 27.1941 31.9586 27.1941 32.3023 27.5377C32.6459 27.8814 32.6459 28.4386 32.3023 28.7823L31.1645 29.92L31.68 30.4355L32.8177 29.2977C33.1614 28.9541 33.7186 28.9541 34.0623 29.2977C34.4059 29.6414 34.4059 30.1986 34.0623 30.5423L32.9245 31.68L33.44 32.1955L34.5777 31.0577C34.9214 30.7141 35.4786 30.7141 35.8223 31.0577C36.1659 31.4014 36.1659 31.9586 35.8223 32.3023L34.6845 33.44L35.2 33.9555L36.3377 32.8177C36.6814 32.4741 37.2386 32.4741 37.5823 32.8177C37.9259 33.1614 37.9259 33.7186 37.5823 34.0623L36.4445 35.2L36.96 35.7155L38.0977 34.5777C38.4414 34.2341 38.9986 34.2341 39.3423 34.5777C39.6859 34.9214 39.6859 35.4786 39.3423 35.8223L38.2045 36.96L38.72 37.4755L39.8577 36.3377C40.2014 35.9941 40.7586 35.9941 41.1023 36.3377C41.4459 36.6814 41.4459 37.2386 41.1023 37.5823L39.9645 38.72L40.48 39.2355L41.6177 38.0977C41.8195 37.896 42.0948 37.8127 42.3573 37.8478C42.6424 37.8096 42.9405 37.9118 43.1421 38.1462C43.6773 38.7686 44 39.5842 44 40.4717C44 42.3987 42.4721 44 40.5396 44C39.5801 44 38.7142 43.601 38.0914 42.9653C37.9098 42.78 37.8268 42.5348 37.8417 42.2948C37.8266 42.0517 37.912 41.8035 38.0977 41.6177L39.2355 40.48L38.72 39.9645L37.5823 41.1023C37.2386 41.4459 36.6814 41.4459 36.3377 41.1023C35.9941 40.7586 35.9941 40.2014 36.3377 39.8577L37.4755 38.72L36.96 38.2045L35.8223 39.3423C35.4786 39.6859 34.9214 39.6859 34.5777 39.3423C34.2341 38.9986 34.2341 38.4414 34.5777 38.0977L35.7155 36.96L35.2 36.4445L34.0623 37.5823C33.7186 37.9259 33.1614 37.9259 32.8177 37.5823C32.4741 37.2386 32.4741 36.6814 32.8177 36.3377L33.9555 35.2L33.44 34.6845L32.3023 35.8223C31.9586 36.1659 31.4014 36.1659 31.0577 35.8223C30.7141 35.4786 30.7141 34.9214 31.0577 34.5777L32.1955 33.44L31.68 32.9245L30.5423 34.0623C30.1986 34.4059 29.6414 34.4059 29.2977 34.0623C28.9541 33.7186 28.9541 33.1614 29.2977 32.8177L30.4355 31.68L29.92 31.1645L28.7823 32.3023C28.4386 32.6459 27.8814 32.6459 27.5377 32.3023C27.1941 31.9586 27.1941 31.4014 27.5377 31.0577L28.6755 29.92L27.9043 29.1488C24.9417 31.8164 21.0205 33.44 16.72 33.44C7.4858 33.44 0 25.9542 0 16.72ZM16.72 1.76C8.45782 1.76 1.76 8.45782 1.76 16.72C1.76 24.9822 8.45782 31.68 16.72 31.68C24.9822 31.68 31.68 24.9822 31.68 16.72C31.68 8.45782 24.9822 1.76 16.72 1.76ZM40.0414 42.1631C40.1993 42.2133 40.3666 42.24 40.5396 42.24C41.4573 42.24 42.24 41.47 42.24 40.4717C42.24 40.3152 42.2206 40.164 42.1842 40.0203L41.1064 41.0981L41.1023 41.1023L41.0981 41.1064L40.0414 42.1631Z" fill="#BECFE3"/>
</svg>
