<svg width="17" height="22" viewBox="0 0 17 22" fill="none" xmlns="http://www.w3.org/2000/svg">
<path d="M0 1.60976C0 0.720712 0.720712 0 1.60976 0H11.8049C12.6939 0 13.4146 0.720713 13.4146 1.60976V8.04878C13.4146 8.34513 13.1744 8.58537 12.878 8.58537C12.5817 8.58537 12.3415 8.34513 12.3415 8.04878V1.60976C12.3415 1.31341 12.1012 1.07317 11.8049 1.07317H1.60976C1.31341 1.07317 1.07317 1.31341 1.07317 1.60976V15.561C1.07317 15.8573 1.31341 16.0976 1.60976 16.0976H5.90244C6.19879 16.0976 6.43902 16.3378 6.43902 16.6341C6.43902 16.9305 6.19879 17.1707 5.90244 17.1707H1.60976C0.720712 17.1707 0 16.45 0 15.561V1.60976Z" fill="#292A2A"/>
<path d="M11.5366 14.4878C11.2402 14.4878 11 14.728 11 15.0244C11 15.3207 11.2402 15.561 11.5366 15.561H12.878C13.1744 15.561 13.4146 15.3207 13.4146 15.0244C13.4146 14.728 13.1744 14.4878 12.878 14.4878H11.5366Z" fill="#292A2A"/>
<path fill-rule="evenodd" clip-rule="evenodd" d="M14.3107 10.3333C14.0793 9.93012 13.6446 9.65854 13.1464 9.65854C12.8444 9.65854 12.5657 9.75833 12.3415 9.92673C12.1173 9.75833 11.8386 9.65854 11.5366 9.65854C11.4447 9.65854 11.355 9.66778 11.2683 9.68537L11.2683 8.31707C11.2683 7.5762 10.6677 6.97561 9.92684 6.97561C9.18597 6.97561 8.58537 7.5762 8.58537 8.31707V12.6367C8.58537 13.1148 8.0074 13.3542 7.66937 13.0162L7.40107 12.7479C6.8772 12.224 6.02783 12.224 5.50396 12.7479C4.98009 13.2717 4.98009 14.1211 5.50396 14.645L8.73907 17.8801C8.79311 17.9341 8.84445 18.0125 8.89149 18.1215C9.4671 19.4551 10.7945 20.3902 12.3415 20.3902C14.4159 20.3902 16.0976 18.7086 16.0976 16.6341C16.0976 16.5282 16.0932 16.4232 16.0845 16.3193C16.0803 16.2687 16.0813 16.2096 16.0857 16.1246L16.0884 16.0762C16.0924 16.0055 16.0976 15.9154 16.0976 15.8293V12.0732C16.0976 11.3323 15.497 10.7317 14.7561 10.7317C14.6642 10.7317 14.5745 10.7409 14.4878 10.7585V10.7317C14.4878 10.5736 14.4194 10.4315 14.3107 10.3333ZM9.92684 8.04878C9.77866 8.04878 9.65855 8.1689 9.65855 8.31707V12.6367C9.65855 14.0709 7.92461 14.7891 6.91052 13.775L6.64223 13.5067C6.53745 13.4019 6.36758 13.4019 6.26281 13.5067C6.15803 13.6115 6.15803 13.7814 6.26281 13.8861L9.49792 17.1212C9.67548 17.2988 9.79406 17.5045 9.87681 17.6962C10.2888 18.6507 11.2379 19.3171 12.3415 19.3171C13.8232 19.3171 15.0244 18.1159 15.0244 16.6341C15.0244 16.5579 15.0212 16.4826 15.015 16.4082C15.0045 16.2817 15.0091 16.1624 15.014 16.0689C15.0154 16.0428 15.0167 16.0191 15.0179 15.9972C15.0216 15.9318 15.0244 15.882 15.0244 15.8293V12.0732C15.0244 11.925 14.9043 11.8049 14.7561 11.8049C14.6084 11.8049 14.4885 11.9243 14.4878 12.0718L14.4878 12.0724V12.878C14.4878 13.1744 14.2476 13.4146 13.9512 13.4146C13.6549 13.4146 13.4146 13.1744 13.4146 12.878V10.9976C13.4134 10.8505 13.2937 10.7317 13.1464 10.7317C12.9982 10.7317 12.8781 10.8518 12.8781 11L12.878 11.0034V12.878C12.878 13.1744 12.6378 13.4146 12.3415 13.4146C12.0451 13.4146 11.8049 13.1744 11.8049 12.878V10.9976C11.8036 10.8505 11.684 10.7317 11.5366 10.7317C11.3884 10.7317 11.2683 10.8518 11.2683 11L11.2683 11.0034V12.878C11.2683 13.1744 11.0281 13.4146 10.7317 13.4146C10.4354 13.4146 10.1951 13.1744 10.1951 12.878V10.7317L10.1951 10.7284L10.1951 8.31707C10.1951 8.1689 10.075 8.04878 9.92684 8.04878Z" fill="#292A2A"/>
<path d="M2.68293 2.41463C2.38658 2.41463 2.14634 2.65487 2.14634 2.95122C2.14634 3.24757 2.38658 3.48781 2.68293 3.48781H10.4634C10.7598 3.48781 11 3.24757 11 2.95122C11 2.65487 10.7598 2.41463 10.4634 2.41463H2.68293Z" fill="#292A2A"/>
<path d="M2.14634 4.56098C2.14634 4.26463 2.38658 4.02439 2.68293 4.02439H8.85366C9.15001 4.02439 9.39024 4.26463 9.39024 4.56098C9.39024 4.85732 9.15001 5.09756 8.85366 5.09756H2.68293C2.38658 5.09756 2.14634 4.85732 2.14634 4.56098Z" fill="#292A2A"/>
<path d="M2.68293 5.63415C2.38658 5.63415 2.14634 5.87438 2.14634 6.17073C2.14634 6.46708 2.38658 6.70732 2.68293 6.70732H7.2439C7.54025 6.70732 7.78049 6.46708 7.78049 6.17073C7.78049 5.87438 7.54025 5.63415 7.2439 5.63415H2.68293Z" fill="#292A2A"/>
<path d="M2.14634 7.78049C2.14634 7.48414 2.38658 7.2439 2.68293 7.2439H6.70732C7.00366 7.2439 7.2439 7.48414 7.2439 7.78049C7.2439 8.07684 7.00366 8.31707 6.70732 8.31707H2.68293C2.38658 8.31707 2.14634 8.07684 2.14634 7.78049Z" fill="#292A2A"/>
<path d="M2.68293 8.85366C2.38658 8.85366 2.14634 9.0939 2.14634 9.39024C2.14634 9.68659 2.38658 9.92683 2.68293 9.92683H6.70732C7.00366 9.92683 7.2439 9.68659 7.2439 9.39024C7.2439 9.0939 7.00366 8.85366 6.70732 8.85366H2.68293Z" fill="#292A2A"/>
<path d="M2.14634 11C2.14634 10.7037 2.38658 10.4634 2.68293 10.4634H4.56098C4.85732 10.4634 5.09756 10.7037 5.09756 11C5.09756 11.2963 4.85732 11.5366 4.56098 11.5366H2.68293C2.38658 11.5366 2.14634 11.2963 2.14634 11Z" fill="#292A2A"/>
<path d="M8.13382 19.4705C8.34544 19.263 8.68517 19.2664 8.89262 19.478C9.76972 20.3727 10.9904 20.9268 12.3414 20.9268C13.6578 20.9268 14.8503 20.4008 15.7219 19.5464C15.9335 19.3389 16.2733 19.3423 16.4807 19.5539C16.6882 19.7655 16.6848 20.1053 16.4732 20.3127C15.4091 21.3559 13.9499 22 12.3414 22C10.6904 22 9.1969 21.3214 8.12627 20.2293C7.91882 20.0177 7.92219 19.6779 8.13382 19.4705Z" fill="#292A2A"/>
</svg>
