<svg width="44" height="41" viewBox="0 0 44 41" fill="none" xmlns="http://www.w3.org/2000/svg">
<path d="M4.81097 9.1775C4.95538 8.69227 4.6791 8.18185 4.19387 8.03744C3.70864 7.89303 3.19822 8.16931 3.05381 8.65454C2.85593 9.3194 2.75 10.0228 2.75 10.7494C2.75 11.4759 2.85593 12.1793 3.05381 12.8442C3.19822 13.3294 3.70864 13.6057 4.19387 13.4613C4.6791 13.3169 4.95538 12.8064 4.81097 12.3212C4.66307 11.8243 4.58333 11.2969 4.58333 10.7494C4.58333 10.2018 4.66307 9.67444 4.81097 9.1775Z" fill="#BECFE3"/>
<path d="M17.1129 8.65454C16.9685 8.16931 16.458 7.89303 15.9728 8.03744C15.4876 8.18185 15.2113 8.69227 15.3557 9.1775C15.5036 9.67444 15.5833 10.2018 15.5833 10.7494C15.5833 11.2969 15.5036 11.8243 15.3557 12.3212C15.2113 12.8064 15.4876 13.3169 15.9728 13.4613C16.458 13.6057 16.9685 13.3294 17.1129 12.8442C17.3107 12.1793 17.4167 11.4759 17.4167 10.7494C17.4167 10.0228 17.3107 9.3194 17.1129 8.65454Z" fill="#BECFE3"/>
<path fill-rule="evenodd" clip-rule="evenodd" d="M0 10.7493C0 5.18048 4.51446 0.666016 10.0833 0.666016C15.6522 0.666016 20.1667 5.18048 20.1667 10.7493C20.1667 16.3182 15.6522 20.8327 10.0833 20.8327C4.51446 20.8327 0 16.3182 0 10.7493ZM10.0833 2.49935C5.52698 2.49935 1.83333 6.193 1.83333 10.7493C1.83333 15.3057 5.52698 18.9993 10.0833 18.9993C14.6397 18.9993 18.3333 15.3057 18.3333 10.7493C18.3333 6.193 14.6397 2.49935 10.0833 2.49935Z" fill="#BECFE3"/>
<path fill-rule="evenodd" clip-rule="evenodd" d="M21.5417 7.99935C21.5417 7.49309 21.9521 7.08268 22.4583 7.08268H41.25C42.7688 7.08268 44 8.3139 44 9.83268V33.666C44 35.1848 42.7688 36.416 41.25 36.416H27.5V39.166H30.25C30.7563 39.166 31.1667 39.5764 31.1667 40.0827C31.1667 40.5889 30.7563 40.9993 30.25 40.9993H17.4167C16.9104 40.9993 16.5 40.5889 16.5 40.0827C16.5 39.5764 16.9104 39.166 17.4167 39.166H20.1667V36.416H6.41667C4.89788 36.416 3.66667 35.1848 3.66667 33.666V22.2077C3.66667 21.7014 4.07707 21.291 4.58333 21.291C5.08959 21.291 5.5 21.7014 5.5 22.2077V29.9993H42.1667V9.83268C42.1667 9.32642 41.7563 8.91602 41.25 8.91602H22.4583C21.9521 8.91602 21.5417 8.50561 21.5417 7.99935ZM25.6667 36.416V39.166H22V36.416H25.6667ZM41.25 34.5827C41.7563 34.5827 42.1667 34.1723 42.1667 33.666V31.8327H5.5V33.666C5.5 34.1723 5.91041 34.5827 6.41667 34.5827H41.25Z" fill="#BECFE3"/>
<path d="M35.75 14.8743C35.75 14.3681 35.3396 13.9577 34.8333 13.9577C34.3271 13.9577 33.9167 14.3681 33.9167 14.8743V24.9577H30.25V17.6243C30.25 17.1181 29.8396 16.7077 29.3333 16.7077C28.8271 16.7077 28.4167 17.1181 28.4167 17.6243V24.9577H25.2083V20.3743C25.2083 19.8681 24.7979 19.4577 24.2917 19.4577C23.7854 19.4577 23.375 19.8681 23.375 20.3743V24.9577H19.7083V22.2077C19.7083 21.7014 19.2979 21.291 18.7917 21.291C18.2854 21.291 17.875 21.7014 17.875 22.2077V24.9577H15.125V23.5827C15.125 23.0764 14.7146 22.666 14.2083 22.666C13.7021 22.666 13.2917 23.0764 13.2917 23.5827V24.9577H10.0833C9.57707 24.9577 9.16667 25.3681 9.16667 25.8743C9.16667 26.3806 9.57707 26.791 10.0833 26.791H38.5C39.0063 26.791 39.4167 26.3806 39.4167 25.8743C39.4167 25.3681 39.0063 24.9577 38.5 24.9577H35.75V14.8743Z" fill="#BECFE3"/>
<path d="M9.16634 15.791V6.54102C9.16634 6.33391 9.33423 6.16602 9.54134 6.16602H10.5413C12.0601 6.16602 13.2913 7.39723 13.2913 8.91602V8.91602C13.2913 10.4348 12.0601 11.666 10.5413 11.666H7.33301M7.33301 13.9577H12.3747" stroke="#BECFE3" stroke-width="1.7" stroke-linecap="round"/>
</svg>
