<svg width="24" height="24" viewBox="0 0 24 24" fill="none" xmlns="http://www.w3.org/2000/svg">
<path d="M2.81874 6.45653C2.92641 6.20169 2.80711 5.90782 2.55227 5.80015C2.29743 5.69247 2.00355 5.81178 1.89588 6.06662C1.64258 6.66614 1.50278 7.32479 1.50278 8.01482C1.50278 8.70484 1.64258 9.3635 1.89588 9.96302C2.00355 10.2179 2.29743 10.3372 2.55227 10.2295C2.80711 10.1218 2.92641 9.82794 2.81874 9.5731C2.61663 9.09474 2.50463 8.5685 2.50463 8.01482C2.50463 7.46114 2.61663 6.9349 2.81874 6.45653Z" fill="#292A2A"/>
<path d="M13.4773 5.80015C13.2225 5.90782 13.1032 6.20169 13.2109 6.45653C13.413 6.9349 13.525 7.46114 13.525 8.01482C13.525 8.5685 13.413 9.09474 13.2109 9.5731C13.1032 9.82794 13.2225 10.1218 13.4773 10.2295C13.7322 10.3372 14.0261 10.2179 14.1337 9.96302C14.387 9.3635 14.5268 8.70484 14.5268 8.01482C14.5268 7.32479 14.387 6.66614 14.1337 6.06662C14.0261 5.81178 13.7322 5.69247 13.4773 5.80015Z" fill="#292A2A"/>
<path fill-rule="evenodd" clip-rule="evenodd" d="M8.01481 0C3.58835 0 0 3.58835 0 8.01481C0 12.4413 3.58835 16.0296 8.01481 16.0296C12.4413 16.0296 16.0296 12.4413 16.0296 8.01481C16.0296 3.58835 12.4413 0 8.01481 0ZM1.00185 8.01481C1.00185 4.14166 4.14166 1.00185 8.01481 1.00185C11.888 1.00185 15.0278 4.14166 15.0278 8.01481C15.0278 11.888 11.888 15.0278 8.01481 15.0278C4.14166 15.0278 1.00185 11.888 1.00185 8.01481Z" fill="#292A2A"/>
<path d="M17.1591 9.56618C17.3436 9.36003 17.6603 9.34249 17.8665 9.527C18.2463 9.86692 18.4964 10.3512 18.5303 10.8937C18.6037 10.9223 18.6763 10.9524 18.7481 10.984C19.535 10.2894 20.737 10.3183 21.4894 11.0707C22.2419 11.8231 22.2708 13.0251 21.5762 13.8121C21.6078 13.8839 21.6379 13.9565 21.6665 14.0299C22.7141 14.0952 23.5435 14.9656 23.5435 16.0296C23.5435 17.0937 22.7141 17.964 21.6665 18.0294C21.6379 18.1028 21.6078 18.1754 21.5762 18.2472C22.2708 19.0341 22.2419 20.2361 21.4895 20.9885C20.737 21.741 19.5351 21.7699 18.7481 21.0753C18.6763 21.1069 18.6037 21.137 18.5303 21.1656C18.465 22.2132 17.5946 23.0426 16.5305 23.0426C15.4665 23.0426 14.5961 22.2132 14.5308 21.1656C14.4574 21.137 14.3848 21.1069 14.313 21.0753C13.526 21.7699 12.3241 21.741 11.5716 20.9885C10.8192 20.2361 10.7903 19.0341 11.4849 18.2472C11.4533 18.1754 11.4232 18.1028 11.3946 18.0294C10.8521 17.9955 10.3678 17.7453 10.0279 17.3656C9.84341 17.1594 9.86095 16.8427 10.0671 16.6582C10.2732 16.4737 10.5899 16.4913 10.7744 16.6974C10.9586 16.9032 11.2246 17.0315 11.5213 17.0315C11.8813 17.0315 12.1804 17.2646 12.2948 17.5775C12.3386 17.6973 12.3873 17.8146 12.4407 17.9294C12.5815 18.2319 12.5348 18.6085 12.28 18.8633C11.8888 19.2545 11.8888 19.8889 12.28 20.2801C12.6713 20.6714 13.3056 20.6714 13.6969 20.2801C13.9517 20.0253 14.3283 19.9787 14.6307 20.1194C14.7455 20.1729 14.8629 20.2216 14.9826 20.2653C15.2956 20.3798 15.5287 20.6788 15.5287 21.0389C15.5287 21.5922 15.9772 22.0407 16.5305 22.0407C17.0839 22.0407 17.5324 21.5922 17.5324 21.0389C17.5324 20.6788 17.7655 20.3798 18.0785 20.2653C18.1982 20.2216 18.3156 20.1729 18.4304 20.1194C18.7328 19.9787 19.1094 20.0253 19.3642 20.2801C19.7555 20.6714 20.3898 20.6714 20.781 20.2801C21.1723 19.8889 21.1723 19.2545 20.781 18.8633C20.5263 18.6085 20.4796 18.2319 20.6204 17.9294C20.6738 17.8147 20.7225 17.6973 20.7663 17.5775C20.8807 17.2646 21.1798 17.0315 21.5398 17.0315C22.0931 17.0315 22.5417 16.5829 22.5417 16.0296C22.5417 15.4763 22.0931 15.0278 21.5398 15.0278C21.1798 15.0278 20.8807 14.7947 20.7663 14.4817C20.7225 14.362 20.6738 14.2446 20.6204 14.1298C20.4796 13.8274 20.5263 13.4507 20.781 13.196C21.1723 12.8047 21.1723 12.1704 20.781 11.7791C20.3898 11.3879 19.7554 11.3879 19.3642 11.7791C19.1094 12.0339 18.7328 12.0806 18.4303 11.9398C18.3156 11.8864 18.1982 11.8377 18.0785 11.7939C17.7655 11.6795 17.5324 11.3804 17.5324 11.0204C17.5324 10.7237 17.4041 10.4577 17.1983 10.2735C16.9922 10.089 16.9746 9.77232 17.1591 9.56618Z" fill="#292A2A"/>
<path fill-rule="evenodd" clip-rule="evenodd" d="M16.5305 13.525C15.1473 13.525 14.0259 14.6463 14.0259 16.0296C14.0259 17.4129 15.1473 18.5342 16.5305 18.5342C17.9138 18.5342 19.0352 17.4129 19.0352 16.0296C19.0352 14.6463 17.9138 13.525 16.5305 13.525ZM15.0278 16.0296C15.0278 15.1997 15.7006 14.5268 16.5305 14.5268C17.3605 14.5268 18.0333 15.1997 18.0333 16.0296C18.0333 16.8596 17.3605 17.5324 16.5305 17.5324C15.7006 17.5324 15.0278 16.8596 15.0278 16.0296Z" fill="#292A2A"/>
<path d="M7.05156 11.5216V4.82387C7.05156 4.64975 7.19271 4.5086 7.36683 4.5086H8.51581C9.62242 4.5086 10.5195 5.40569 10.5195 6.5123V6.5123C10.5195 7.61892 9.62242 8.516 8.51581 8.516H5.51025M5.51025 10.1858H9.74885" stroke="#292A2A" stroke-width="1.1" stroke-linecap="round"/>
</svg>
