<svg width="44" height="40" viewBox="0 0 44 40" fill="none" xmlns="http://www.w3.org/2000/svg">
<path d="M0 4.56746C0 2.04492 2.04328 0 4.5638 0H22.819C25.3395 0 27.3828 2.04492 27.3828 4.56746V14.1591C27.3828 14.6636 26.9742 15.0726 26.4701 15.0726C25.966 15.0726 25.5573 14.6636 25.5573 14.1591V4.56746C25.5573 3.05394 24.3313 1.82699 22.819 1.82699H4.5638C3.05149 1.82699 1.82552 3.05394 1.82552 4.56746V34.7127C1.82552 36.2262 3.05149 37.4532 4.5638 37.4532H21.9062C22.4104 37.4532 22.819 37.8622 22.819 38.3667C22.819 38.8712 22.4104 39.2802 21.9062 39.2802H4.5638C2.04328 39.2802 0 37.2353 0 34.7127V4.56746Z" fill="#BECFE3"/>
<path fill-rule="evenodd" clip-rule="evenodd" d="M17.3424 19.1833V21.0103H19.168C19.6721 21.0103 20.0807 21.4193 20.0807 21.9238C20.0807 22.4283 19.6721 22.8373 19.168 22.8373H6.38932C4.87701 22.8373 3.65104 21.6104 3.65104 20.0968C3.65104 18.5833 4.87701 17.3564 6.38932 17.3564H20.9935C21.4976 17.3564 21.9062 17.7653 21.9062 18.2698C21.9062 18.7744 21.4976 19.1833 20.9935 19.1833H17.3424ZM10.0404 19.1833H6.38932C5.88522 19.1833 5.47656 19.5923 5.47656 20.0968C5.47656 20.6013 5.88522 21.0103 6.38932 21.0103H10.0404V19.1833ZM11.8659 21.0103H15.5169V19.1833H11.8659V21.0103Z" fill="#BECFE3"/>
<path fill-rule="evenodd" clip-rule="evenodd" d="M17.3424 27.4048V25.5778H18.2552C18.7593 25.5778 19.168 25.1688 19.168 24.6643C19.168 24.1598 18.7593 23.7508 18.2552 23.7508H6.38932C4.87701 23.7508 3.65104 24.9778 3.65104 26.4913C3.65104 28.0048 4.87701 29.2318 6.38932 29.2318H18.2552C18.7593 29.2318 19.168 28.8228 19.168 28.3183C19.168 27.8138 18.7593 27.4048 18.2552 27.4048H17.3424ZM6.38932 25.5778H10.0404V27.4048H6.38932C5.88522 27.4048 5.47656 26.9958 5.47656 26.4913C5.47656 25.9868 5.88522 25.5778 6.38932 25.5778ZM15.5169 27.4048H11.8659V25.5778H15.5169V27.4048Z" fill="#BECFE3"/>
<path fill-rule="evenodd" clip-rule="evenodd" d="M17.3424 31.9722V33.7992H20.0807C20.5848 33.7992 20.9935 34.2082 20.9935 34.7127C20.9935 35.2172 20.5848 35.6262 20.0807 35.6262H6.38932C4.87701 35.6262 3.65104 34.3993 3.65104 32.8857C3.65104 31.3722 4.87701 30.1453 6.38932 30.1453H18.2552C18.7593 30.1453 19.168 30.5542 19.168 31.0587C19.168 31.5633 18.7593 31.9722 18.2552 31.9722H17.3424ZM10.0404 31.9722H6.38932C5.88522 31.9722 5.47656 32.3812 5.47656 32.8857C5.47656 33.3902 5.88522 33.7992 6.38932 33.7992H10.0404V31.9722ZM11.8659 33.7992H15.5169V31.9722H11.8659V33.7992Z" fill="#BECFE3"/>
<path fill-rule="evenodd" clip-rule="evenodd" d="M3.65104 7.30794C3.65104 5.79442 4.87701 4.56746 6.38932 4.56746H20.9935C22.5058 4.56746 23.7318 5.79442 23.7318 7.30794V11.8754C23.7318 13.3889 22.5058 14.6159 20.9935 14.6159H6.38932C4.87701 14.6159 3.65104 13.3889 3.65104 11.8754V7.30794ZM6.38932 6.39445C5.88522 6.39445 5.47656 6.80343 5.47656 7.30794V11.8754C5.47656 12.3799 5.88522 12.7889 6.38932 12.7889H20.9935C21.4976 12.7889 21.9062 12.3799 21.9062 11.8754V7.30794C21.9062 6.80343 21.4976 6.39445 20.9935 6.39445H6.38932Z" fill="#BECFE3"/>
<path d="M25.2169 24.5631C25.4131 24.0984 25.1957 23.5624 24.7313 23.3661C24.267 23.1697 23.7315 23.3873 23.5353 23.852C23.0738 24.9453 22.819 26.1465 22.819 27.4048C22.819 28.6631 23.0738 29.8643 23.5353 30.9576C23.7315 31.4223 24.267 31.6399 24.7313 31.4435C25.1957 31.2471 25.4131 30.7112 25.2169 30.2465C24.8486 29.3742 24.6445 28.4145 24.6445 27.4048C24.6445 26.3951 24.8486 25.4354 25.2169 24.5631Z" fill="#BECFE3"/>
<path d="M39.1619 23.3661C38.6975 23.5624 38.4801 24.0984 38.6763 24.5631C39.0446 25.4354 39.2487 26.3951 39.2487 27.4048C39.2487 28.4145 39.0446 29.3742 38.6763 30.2465C38.4801 30.7112 38.6975 31.2471 39.1619 31.4435C39.6262 31.6399 40.1617 31.4223 40.3579 30.9576C40.8195 29.8643 41.0742 28.6631 41.0742 27.4048C41.0742 26.1465 40.8195 24.9453 40.3579 23.852C40.1617 23.3873 39.6262 23.1697 39.1619 23.3661Z" fill="#BECFE3"/>
<path fill-rule="evenodd" clip-rule="evenodd" d="M20.0807 27.4048C20.0807 20.8462 25.3933 15.5294 31.9466 15.5294C38.5 15.5294 43.8125 20.8462 43.8125 27.4048C43.8125 33.9634 38.5 39.2802 31.9466 39.2802C25.3933 39.2802 20.0807 33.9634 20.0807 27.4048ZM31.9466 17.3564C26.4015 17.3564 21.9062 21.8552 21.9062 27.4048C21.9062 32.9544 26.4015 37.4532 31.9466 37.4532C37.4918 37.4532 41.987 32.9544 41.987 27.4048C41.987 21.8552 37.4918 17.3564 31.9466 17.3564Z" fill="#BECFE3"/>
<path d="M29.9835 34.7474V21.7209C29.9835 21.4058 30.2389 21.1504 30.554 21.1504H32.3741C34.5197 21.1504 36.259 22.8897 36.259 25.0352V25.0352C36.259 27.1808 34.5197 28.9201 32.3741 28.9201H27.1943M27.1943 32.1575H34.8644" stroke="#BECFE3" stroke-width="1.5" stroke-linecap="round"/>
</svg>
