<svg width="25" height="24" viewBox="0 0 25 24" fill="none" xmlns="http://www.w3.org/2000/svg">
<path d="M9.53223 3.55288C9.7661 3.62249 9.89927 3.8685 9.82966 4.10237C9.75838 4.34189 9.71995 4.59605 9.71995 4.85998C9.71995 5.1239 9.75838 5.37806 9.82966 5.61758C9.89927 5.85145 9.7661 6.09746 9.53223 6.16707C9.29836 6.23667 9.05235 6.10351 8.98275 5.86964C8.88737 5.54919 8.83632 5.21015 8.83632 4.85998C8.83632 4.5098 8.88737 4.17077 8.98275 3.85032C9.05235 3.61645 9.29836 3.48328 9.53223 3.55288Z" fill="#292A2A"/>
<path d="M15.2095 3.55288C15.4433 3.48328 15.6893 3.61645 15.7589 3.85032C15.8543 4.17077 15.9054 4.5098 15.9054 4.85998C15.9054 5.21015 15.8543 5.54919 15.7589 5.86964C15.6893 6.10351 15.4433 6.23667 15.2095 6.16707C14.9756 6.09746 14.8424 5.85145 14.912 5.61758C14.9833 5.37806 15.0217 5.1239 15.0217 4.85998C15.0217 4.59605 14.9833 4.34189 14.912 4.10237C14.8424 3.8685 14.9756 3.62249 15.2095 3.55288Z" fill="#292A2A"/>
<path fill-rule="evenodd" clip-rule="evenodd" d="M4.85997 9.01932V11.5429C4.23895 11.7027 3.75004 12.1916 3.5902 12.8127H2.65089C1.91887 12.8127 1.32545 13.4061 1.32545 14.1381V17.0478L0.129405 18.2439C-0.043135 18.4164 -0.043135 18.6961 0.129405 18.8687C0.301945 19.0412 0.581687 19.0412 0.754227 18.8687L1.32545 18.2975V21.2826C0.810647 21.4645 0.441816 21.9555 0.441816 22.5326C0.441816 23.2646 1.03524 23.8581 1.76726 23.8581C2.49929 23.8581 3.09271 23.2646 3.09271 22.5326C3.09271 21.9555 2.72388 21.4645 2.20908 21.2826V18.2975L2.7803 18.8687C2.95284 19.0412 3.23258 19.0412 3.40512 18.8687C3.57766 18.6961 3.57766 18.4164 3.40512 18.2439L2.20908 17.0478V14.1381C2.20908 13.8941 2.40689 13.6963 2.65089 13.6963H3.5902C3.78639 14.4585 4.47832 15.0217 5.30179 15.0217C6.12526 15.0217 6.81719 14.4585 7.01338 13.6963H7.95268C8.19669 13.6963 8.3945 13.8941 8.3945 14.1381V17.0478L7.19846 18.2439C7.02592 18.4164 7.02592 18.6961 7.19846 18.8687C7.371 19.0412 7.65074 19.0412 7.82328 18.8687L8.3945 18.2975V21.2826C7.8797 21.4645 7.51087 21.9555 7.51087 22.5326C7.51087 23.2646 8.10429 23.8581 8.83632 23.8581C9.56834 23.8581 10.1618 23.2646 10.1618 22.5326C10.1618 21.9555 9.79293 21.4645 9.27813 21.2826V18.2975L9.84935 18.8687C10.0219 19.0412 10.3016 19.0412 10.4742 18.8687C10.6467 18.6961 10.6467 18.4164 10.4742 18.2439L9.27813 17.0478V14.1381C9.27813 13.9832 9.25155 13.8345 9.20271 13.6963H15.539C15.4901 13.8345 15.4636 13.9832 15.4636 14.1381V17.0478L14.2675 18.2439C14.095 18.4164 14.095 18.6961 14.2675 18.8687C14.44 19.0412 14.7198 19.0412 14.8923 18.8687L15.4636 18.2975V21.2826C14.9488 21.4645 14.5799 21.9555 14.5799 22.5326C14.5799 23.2646 15.1733 23.8581 15.9054 23.8581C16.6374 23.8581 17.2308 23.2646 17.2308 22.5326C17.2308 21.9555 16.862 21.4645 16.3472 21.2826V18.2975L16.9184 18.8687C17.0909 19.0412 17.3707 19.0412 17.5432 18.8687C17.7158 18.6961 17.7158 18.4164 17.5432 18.2439L16.3472 17.0478V14.1381C16.3472 13.8941 16.545 13.6963 16.789 13.6963H17.7283C17.9245 14.4585 18.6164 15.0217 19.4399 15.0217C20.2634 15.0217 20.9553 14.4585 21.1515 13.6963H22.0908C22.3348 13.6963 22.5326 13.8941 22.5326 14.1381V17.0478L21.3366 18.2439C21.164 18.4164 21.164 18.6961 21.3366 18.8687C21.5091 19.0412 21.7888 19.0412 21.9614 18.8687L22.5326 18.2975V21.2826C22.0178 21.4645 21.649 21.9555 21.649 22.5326C21.649 23.2646 22.2424 23.8581 22.9744 23.8581C23.7064 23.8581 24.2999 23.2646 24.2999 22.5326C24.2999 21.9555 23.931 21.4645 23.4162 21.2826V18.2975L23.9875 18.8687C24.16 19.0412 24.4397 19.0412 24.6123 18.8687C24.7848 18.6961 24.7848 18.4164 24.6123 18.2439L23.4162 17.0478V14.1381C23.4162 13.4061 22.8228 12.8127 22.0908 12.8127H21.1515C20.9916 12.1916 20.5027 11.7027 19.8817 11.5429V9.01932L20.4529 9.59054C20.6255 9.76308 20.9052 9.76308 21.0778 9.59054C21.2503 9.418 21.2503 9.13826 21.0778 8.96572L19.8817 7.76968V5.74361C19.8817 5.01158 19.2883 4.41816 18.5563 4.41816H17.211C16.9878 1.94112 14.906 0 12.3708 0C9.83568 0 7.7539 1.94112 7.53068 4.41816H6.18542C5.4534 4.41816 4.85997 5.01158 4.85997 5.74361V7.76968L3.66393 8.96572C3.49139 9.13826 3.49139 9.418 3.66393 9.59054C3.83647 9.76308 4.11621 9.76308 4.28875 9.59054L4.85997 9.01932ZM12.3708 0.883632C10.1748 0.883632 8.3945 2.6639 8.3945 4.85997C8.3945 7.05605 10.1748 8.83632 12.3708 8.83632C14.5669 8.83632 16.3472 7.05605 16.3472 4.85997C16.3472 2.6639 14.5669 0.883632 12.3708 0.883632ZM12.3708 9.71995C9.83568 9.71995 7.7539 7.77883 7.53068 5.30179H6.18542C5.94141 5.30179 5.74361 5.4996 5.74361 5.74361V7.76968L6.93965 8.96572C7.11219 9.13826 7.11219 9.418 6.93965 9.59054C6.76711 9.76308 6.48737 9.76308 6.31483 9.59054L5.74361 9.01932V11.5429C6.36462 11.7027 6.85354 12.1916 7.01338 12.8127H17.7283C17.8881 12.1916 18.3771 11.7027 18.9981 11.5429V9.01932L18.4269 9.59054C18.2543 9.76308 17.9746 9.76308 17.802 9.59054C17.6295 9.418 17.6295 9.13826 17.802 8.96572L18.9981 7.76968V5.74361C18.9981 5.4996 18.8003 5.30179 18.5563 5.30179H17.211C16.9878 7.77883 14.906 9.71995 12.3708 9.71995ZM1.32545 22.5326C1.32545 22.2886 1.52325 22.0908 1.76726 22.0908C2.01127 22.0908 2.20908 22.2886 2.20908 22.5326C2.20908 22.7766 2.01127 22.9744 1.76726 22.9744C1.52325 22.9744 1.32545 22.7766 1.32545 22.5326ZM15.4636 22.5326C15.4636 22.2886 15.6614 22.0908 15.9054 22.0908C16.1494 22.0908 16.3472 22.2886 16.3472 22.5326C16.3472 22.7766 16.1494 22.9744 15.9054 22.9744C15.6614 22.9744 15.4636 22.7766 15.4636 22.5326ZM8.83632 22.0908C8.59231 22.0908 8.3945 22.2886 8.3945 22.5326C8.3945 22.7766 8.59231 22.9744 8.83632 22.9744C9.08032 22.9744 9.27813 22.7766 9.27813 22.5326C9.27813 22.2886 9.08032 22.0908 8.83632 22.0908ZM22.9744 22.0908C22.7304 22.0908 22.5326 22.2886 22.5326 22.5326C22.5326 22.7766 22.7304 22.9744 22.9744 22.9744C23.2184 22.9744 23.4162 22.7766 23.4162 22.5326C23.4162 22.2886 23.2184 22.0908 22.9744 22.0908ZM19.4399 12.3708C19.9279 12.3708 20.3235 12.7665 20.3235 13.2545C20.3235 13.7425 19.9279 14.1381 19.4399 14.1381C18.9519 14.1381 18.5563 13.7425 18.5563 13.2545C18.5563 12.7665 18.9519 12.3708 19.4399 12.3708ZM4.41816 13.2545C4.41816 13.7425 4.81377 14.1381 5.30179 14.1381C5.78981 14.1381 6.18542 13.7425 6.18542 13.2545C6.18542 12.7665 5.78981 12.3708 5.30179 12.3708C4.81377 12.3708 4.41816 12.7665 4.41816 13.2545Z" fill="#292A2A"/>
<path d="M11.6906 7.51055V2.43121C11.6906 2.30836 11.7902 2.20876 11.913 2.20876H12.6228C13.4594 2.20876 14.1376 2.88696 14.1376 3.72356V3.72356C14.1376 4.56016 13.4594 5.23836 12.6228 5.23836H10.603M10.603 6.50069H13.5938" stroke="#292A2A" stroke-width="0.7" stroke-linecap="round"/>
</svg>
