<svg width="20" height="20" viewBox="0 0 20 20" fill="none" xmlns="http://www.w3.org/2000/svg">
<path d="M18.1983 0H1.80476C0.807472 0 0 0.807472 0 1.80175V18.1952C0 19.1925 0.807472 20 1.80476 20H18.1983C19.1925 20 20 19.1925 20 18.1952V1.80175C20 0.807472 19.1925 0 18.1983 0ZM13.944 5.08587H12.781C11.636 5.08587 11.2775 5.79693 11.2775 6.52606V8.2555H13.8355L13.4257 10.919H11.2775V17.3637H8.39711V10.919H6.05604V8.2555H8.39711V6.22477C8.39711 3.91383 9.77403 2.63634 11.8801 2.63634C12.8894 2.63634 13.944 2.81711 13.944 2.81711V5.08587Z" fill="white"/>
</svg>
