<svg width="20" height="20" viewBox="0 0 20 20" fill="none" xmlns="http://www.w3.org/2000/svg">
<g clip-path="url(#clip0_39_622)">
<path d="M18.1983 0H1.80175C0.807472 0 0 0.807472 0 1.80476V18.1983C0 19.1925 0.807472 20 1.80175 20H18.1983C19.1925 20 20 19.1925 20 18.1983V1.80476C20 0.807472 19.1925 0 18.1983 0ZM6.70383 15.9596H4.22416V7.99639H6.70383V15.9596ZM5.46249 6.91172C4.67008 6.91172 4.02531 6.26695 4.02531 5.47454C4.02531 4.68213 4.67008 4.04037 5.46249 4.04037C6.2549 4.04037 6.89967 4.68515 6.89967 5.47454C6.89967 6.26394 6.2549 6.91172 5.46249 6.91172ZM15.9747 15.9596H13.5011V12.088C13.5011 11.166 13.483 9.9759 12.2145 9.9759C10.9461 9.9759 10.7291 10.9822 10.7291 12.0217V15.9596H8.2555V7.99639H10.6297V9.08707H10.6629C10.9943 8.46038 11.7987 7.80054 13.0069 7.80054C15.5107 7.80054 15.9747 9.44863 15.9747 11.5939V15.9596Z" fill="white"/>
</g>
<defs>
<clipPath id="clip0_39_622">
<rect width="20" height="20" fill="white"/>
</clipPath>
</defs>
</svg>
