<svg width="20" height="20" viewBox="0 0 20 20" fill="none" xmlns="http://www.w3.org/2000/svg">
<g clip-path="url(#clip0_39_624)">
<path d="M18.1955 0H1.80449C0.80735 0 0 0.80735 0 1.80449V18.1955C0 19.1896 0.80735 20 1.80449 20H18.1955C19.1926 20 20 19.1896 20 18.1955V1.80449C20 0.80735 19.1926 0 18.1955 0ZM15.9572 5.55204C15.9241 6.0009 15.668 7.57042 15.412 9.26646C15.0264 11.6704 14.6106 14.2943 14.6106 14.2943C14.6106 14.2943 14.5474 15.0324 14.0021 15.1589C13.4599 15.2884 12.5621 14.71 12.4025 14.5835C12.2729 14.4871 9.99849 13.0471 9.16704 12.3422C8.94412 12.1494 8.68806 11.7638 9.20018 11.318C10.351 10.2606 11.7277 8.94713 12.5621 8.11568C12.9447 7.73008 13.3303 6.83235 11.7277 7.92288C9.45624 9.49239 7.21494 10.9655 7.21494 10.9655C7.21494 10.9655 6.70282 11.2848 5.74183 10.9956C4.78084 10.7094 3.66019 10.3238 3.66019 10.3238C3.66019 10.3238 2.892 9.84486 4.20244 9.33273C4.20244 9.33273 9.74243 7.05829 11.6644 6.25697C12.4025 5.93764 14.8998 4.91339 14.8998 4.91339C14.8998 4.91339 16.0536 4.46453 15.9572 5.55204Z" fill="white"/>
</g>
<defs>
<clipPath id="clip0_39_624">
<rect width="20" height="20" fill="white"/>
</clipPath>
</defs>
</svg>
