<svg width="22" height="20" viewBox="0 0 22 20" fill="none" xmlns="http://www.w3.org/2000/svg">
<path fill-rule="evenodd" clip-rule="evenodd" d="M10.6374 0C9.43569 0 8.46154 0.97415 8.46154 2.17582C8.46154 3.3775 9.43569 4.35165 10.6374 4.35165C11.839 4.35165 12.8132 3.3775 12.8132 2.17582C12.8132 0.97415 11.839 0 10.6374 0ZM9.42857 2.17582C9.42857 1.50823 9.96977 0.967033 10.6374 0.967033C11.305 0.967033 11.8462 1.50823 11.8462 2.17582C11.8462 2.84342 11.305 3.38462 10.6374 3.38462C9.96977 3.38462 9.42857 2.84342 9.42857 2.17582Z" fill="#292A2A"/>
<path fill-rule="evenodd" clip-rule="evenodd" d="M18.1319 3.38462C17.3308 3.38462 16.6813 4.03405 16.6813 4.83516C16.6813 5.63628 17.3308 6.28571 18.1319 6.28571C18.933 6.28571 19.5824 5.63628 19.5824 4.83516C19.5824 4.03405 18.933 3.38462 18.1319 3.38462ZM17.6484 4.83516C17.6484 4.56813 17.8648 4.35165 18.1319 4.35165C18.3989 4.35165 18.6154 4.56813 18.6154 4.83516C18.6154 5.1022 18.3989 5.31868 18.1319 5.31868C17.8648 5.31868 17.6484 5.1022 17.6484 4.83516Z" fill="#292A2A"/>
<path fill-rule="evenodd" clip-rule="evenodd" d="M7.22128 5.36292C7.54103 4.99749 7.98647 4.83516 8.46154 4.83516H9.33111C9.66049 4.83516 9.98006 4.94726 10.2373 5.15303L10.8791 5.66651L11.521 5.15303C11.7782 4.94726 12.0978 4.83516 12.4271 4.83516H13.2967C13.8548 4.83516 14.3621 4.975 14.7265 5.33942C15.0179 5.63082 15.1657 6.01362 15.2132 6.44065C15.4411 6.33508 15.6941 6.28571 15.956 6.28571H16.5839C16.9132 6.28571 17.2328 6.39781 17.49 6.60357L18.1319 7.11706L18.7737 6.60357C19.0309 6.39781 19.3505 6.28571 19.6799 6.28571H20.0659C20.624 6.28571 21.1313 6.42555 21.4957 6.78997C21.8602 7.15439 22 7.66173 22 8.21978V11.6044C22 11.9762 21.9848 12.3095 21.9368 12.598C21.8887 12.8863 21.8031 13.1606 21.6406 13.3927C21.379 13.7664 20.9945 13.932 20.5494 13.9926V18.3736C20.5494 19.1747 19.9 19.8242 19.0989 19.8242C18.7274 19.8242 18.3885 19.6845 18.1319 19.4548C17.8752 19.6845 17.5363 19.8242 17.1648 19.8242C16.3637 19.8242 15.7143 19.1747 15.7143 18.3736V13.9736C15.207 13.8656 14.8375 13.5821 14.6016 13.1777C14.5722 13.1274 14.5453 13.0759 14.5207 13.0233C14.18 13.3158 13.7544 13.4581 13.2967 13.5119V18.3736C13.2967 19.1747 12.6473 19.8242 11.8462 19.8242C11.4746 19.8242 11.1357 19.6845 10.8791 19.4548C10.6225 19.6845 10.2836 19.8242 9.91209 19.8242C9.11097 19.8242 8.46154 19.1747 8.46154 18.3736V13.4921C8.10398 13.4204 7.80021 13.2684 7.55317 13.0561C7.50759 13.1751 7.45002 13.2882 7.37688 13.3927C7.11526 13.7664 6.73078 13.932 6.28571 13.9926V18.3736C6.28571 19.1747 5.63628 19.8242 4.83517 19.8242C4.46365 19.8242 4.12476 19.6845 3.86813 19.4548C3.6115 19.6845 3.27261 19.8242 2.9011 19.8242C2.09998 19.8242 1.45055 19.1747 1.45055 18.3736V13.9736C0.943284 13.8656 0.573738 13.5821 0.337843 13.1777C0.0596219 12.7007 0 12.1099 0 11.6044V8.21978C0 7.66098 0.139694 7.17045 0.452051 6.81347C0.771803 6.44804 1.21724 6.28571 1.69231 6.28571H2.32012C2.6495 6.28571 2.96907 6.39781 3.22627 6.60357L3.86813 7.11706L4.50999 6.60357C4.76719 6.39781 5.08676 6.28571 5.41614 6.28571H5.8022C6.15752 6.28571 6.49229 6.34241 6.7827 6.47767C6.82444 6.04002 6.96453 5.65635 7.22128 5.36292ZM2.41758 18.3736C2.41758 18.6407 2.63406 18.8571 2.9011 18.8571C3.16814 18.8571 3.38462 18.6407 3.38462 18.3736V13.0549C3.38462 12.7879 3.60109 12.5714 3.86813 12.5714C4.13517 12.5714 4.35165 12.7879 4.35165 13.0549V18.3736C4.35165 18.6407 4.56813 18.8571 4.83517 18.8571C5.1022 18.8571 5.31868 18.6407 5.31868 18.3736V9.18681C5.31868 8.91977 5.53516 8.7033 5.8022 8.7033C6.06924 8.7033 6.28571 8.91977 6.28571 9.18681V13.0112C6.46762 12.9682 6.54118 12.9002 6.58466 12.8381C6.63374 12.768 6.68409 12.6494 6.71915 12.4391C6.75417 12.2289 6.76923 11.9579 6.76923 11.6044V8.21978C6.76923 7.81079 6.66731 7.59287 6.54821 7.47377C6.42911 7.35467 6.21118 7.25275 5.8022 7.25275H5.41614C5.30635 7.25275 5.19982 7.29011 5.11409 7.3587L4.17018 8.11383C3.99359 8.2551 3.74267 8.2551 3.56608 8.11383L2.62217 7.3587C2.53644 7.29011 2.42992 7.25275 2.32012 7.25275H1.69231C1.4421 7.25275 1.28314 7.33218 1.17982 7.45027C1.0691 7.5768 0.967033 7.81154 0.967033 8.21978V11.6044C0.967033 12.0659 1.02829 12.4421 1.17315 12.6904C1.23532 12.797 1.31933 12.8927 1.45055 12.9592V9.18681C1.45055 8.91977 1.66703 8.7033 1.93407 8.7033C2.2011 8.7033 2.41758 8.91977 2.41758 9.18681V18.3736ZM7.73626 11.1209C7.73626 11.5329 7.84054 11.9046 8.03242 12.1604C8.1361 12.2987 8.27387 12.4156 8.46154 12.4889V7.73626C8.46154 7.46922 8.67802 7.25275 8.94506 7.25275C9.21209 7.25275 9.42857 7.46922 9.42857 7.73626V18.3736C9.42857 18.6407 9.64505 18.8571 9.91209 18.8571C10.1791 18.8571 10.3956 18.6407 10.3956 18.3736V13.0549C10.3956 12.7879 10.6121 12.5714 10.8791 12.5714C11.1462 12.5714 11.3626 12.7879 11.3626 13.0549V18.3736C11.3626 18.6407 11.5791 18.8571 11.8462 18.8571C12.1132 18.8571 12.3297 18.6407 12.3297 18.3736V7.73626C12.3297 7.46922 12.5461 7.25275 12.8132 7.25275C13.0802 7.25275 13.2967 7.46922 13.2967 7.73626V12.5355C13.577 12.4884 13.773 12.3971 13.9083 12.2741C14.1015 12.0985 14.2637 11.7723 14.2637 11.1209V6.76923C14.2637 6.36025 14.1618 6.14232 14.0427 6.02322C13.9236 5.90412 13.7057 5.8022 13.2967 5.8022H12.4271C12.3173 5.8022 12.2108 5.83956 12.1251 5.90815L11.1812 6.66328C11.0046 6.80455 10.7537 6.80455 10.5771 6.66328L9.63316 5.90815C9.54743 5.83956 9.44091 5.8022 9.33111 5.8022H8.46154C8.21133 5.8022 8.05237 5.88163 7.94905 5.99972C7.83833 6.12625 7.73626 6.36099 7.73626 6.76923V11.1209ZM16.6813 18.3736C16.6813 18.6407 16.8978 18.8571 17.1648 18.8571C17.4319 18.8571 17.6484 18.6407 17.6484 18.3736V13.0549C17.6484 12.7879 17.8648 12.5714 18.1319 12.5714C18.3989 12.5714 18.6154 12.7879 18.6154 13.0549V18.3736C18.6154 18.6407 18.8319 18.8571 19.0989 18.8571C19.3659 18.8571 19.5824 18.6407 19.5824 18.3736V9.18681C19.5824 8.91977 19.7989 8.7033 20.0659 8.7033C20.333 8.7033 20.5494 8.91977 20.5494 9.18681V13.0112C20.7314 12.9682 20.8049 12.9002 20.8484 12.8381C20.8975 12.768 20.9478 12.6494 20.9829 12.4391C21.0179 12.2289 21.033 11.9579 21.033 11.6044V8.21978C21.033 7.81079 20.931 7.59287 20.8119 7.47377C20.6928 7.35467 20.4749 7.25275 20.0659 7.25275H19.6799C19.5701 7.25275 19.4636 7.29011 19.3778 7.3587L18.4339 8.11383C18.2573 8.2551 18.0064 8.2551 17.8298 8.11383L16.8859 7.3587C16.8002 7.29011 16.6937 7.25275 16.5839 7.25275H15.956C15.7058 7.25275 15.5469 7.33218 15.4436 7.45027C15.3328 7.5768 15.2308 7.81154 15.2308 8.21978V11.6044C15.2308 12.0659 15.292 12.4421 15.4369 12.6904C15.4991 12.797 15.5831 12.8927 15.7143 12.9592V9.18681C15.7143 8.91977 15.9308 8.7033 16.1978 8.7033C16.4648 8.7033 16.6813 8.91977 16.6813 9.18681V18.3736Z" fill="#292A2A"/>
<path fill-rule="evenodd" clip-rule="evenodd" d="M2.41758 4.83516C2.41758 4.03405 3.06702 3.38462 3.86813 3.38462C4.66925 3.38462 5.31868 4.03405 5.31868 4.83516C5.31868 5.63628 4.66925 6.28571 3.86813 6.28571C3.06702 6.28571 2.41758 5.63628 2.41758 4.83516ZM3.86813 4.35165C3.60109 4.35165 3.38462 4.56813 3.38462 4.83516C3.38462 5.1022 3.60109 5.31868 3.86813 5.31868C4.13517 5.31868 4.35165 5.1022 4.35165 4.83516C4.35165 4.56813 4.13517 4.35165 3.86813 4.35165Z" fill="#292A2A"/>
</svg>
