<svg width="785" height="726" viewBox="0 0 785 726" fill="none" xmlns="http://www.w3.org/2000/svg">
<g opacity="0.06">
<rect x="400.375" y="-37.3125" width="186.948" height="186.948" transform="rotate(15 400.375 -37.3125)" fill="#D0E6FF"/>
<rect width="37.3897" height="37.3897" transform="matrix(0.5 0.866025 0.866025 -0.5 440.922 70.2905)" fill="#D0E6FF"/>
<path d="M404.618 181.536L472.335 199.681L430.009 222.21L404.618 181.536Z" fill="#D0E6FF"/>
<path d="M572.512 141.865L590.657 74.1482L613.185 116.474L572.512 141.865Z" fill="#D0E6FF"/>
<path d="M364.941 13.6774L346.796 81.3943L324.268 39.0683L364.941 13.6774Z" fill="#D0E6FF"/>
<path fillRule="evenodd" clip-rule="evenodd" d="M218.473 316.997L248.09 206.464L304.498 221.579L259.767 388.52L92.8259 343.788L107.941 287.38L218.473 316.997Z" fill="#D0E6FF"/>
<rect width="59.9175" height="59.9175" transform="matrix(0.965926 0.258819 0.258819 -0.965926 90.2188 343.994)" fill="#D0E6FF"/>
<rect x="108.156" y="125.281" width="123.008" height="123.008" transform="rotate(15 108.156 125.281)" fill="#D0E6FF"/>
<rect x="482.375" y="475.157" width="184.546" height="184.546" transform="rotate(105 482.375 475.157)" fill="#D0E6FF"/>
<rect x="419.781" y="511.295" width="82.336" height="82.336" transform="rotate(105 419.781 511.295)" fill="#D0E6FF"/>
<path d="M505.326 543.028L487.69 608.846L466.341 567.854L505.326 543.028Z" fill="#D0E6FF"/>
<path d="M232.658 540.515L250.294 474.696L271.643 515.689L232.658 540.515Z" fill="#D0E6FF"/>
<path d="M369.47 677.109L303.651 659.473L344.644 638.124L369.47 677.109Z" fill="#D0E6FF"/>
<path d="M371.999 404.426L437.818 422.062L396.825 443.411L371.999 404.426Z" fill="#D0E6FF"/>
<rect x="396.789" y="547.752" width="40.1512" height="40.1512" transform="rotate(150 396.789 547.752)" fill="#D0E6FF"/>
<circle cx="637.791" cy="376.389" r="107.889" transform="rotate(60 637.791 376.389)" fill="#D0E6FF"/>
<rect x="637.789" y="376.389" width="107.889" height="107.889" transform="rotate(60 637.789 376.389)" fill="#D0E6FF"/>
<rect width="41.6537" height="41.6537" transform="matrix(0.5 0.866025 0.866025 -0.5 641.203 249.837)" fill="#D0E6FF"/>
<rect width="41.6537" height="41.6537" transform="matrix(0.5 0.866025 0.866025 -0.5 727.805 399.824)" fill="#D0E6FF"/>
<rect width="41.6537" height="41.6537" transform="matrix(0.5 0.866025 0.866025 -0.5 491.219 336.432)" fill="#D0E6FF"/>
</g>
</svg>